<?xml version="1.0" encoding="UTF-8" standalone="no"?>
<!-- Created with Inkscape (http://www.inkscape.org/) -->

<svg
   xmlns:dc="http://purl.org/dc/elements/1.1/"
   xmlns:cc="http://creativecommons.org/ns#"
   xmlns:rdf="http://www.w3.org/1999/02/22-rdf-syntax-ns#"
   xmlns:svg="http://www.w3.org/2000/svg"
   xmlns="http://www.w3.org/2000/svg"
   version="1.1"
   width="1202.4998"
   height="530.61261"
   id="svg2"
   xml:space="preserve"><metadata
     id="metadata8"><rdf:RDF><cc:Work
         rdf:about=""><dc:format>image/svg+xml</dc:format><dc:type
           rdf:resource="http://purl.org/dc/dcmitype/StillImage" /><dc:title></dc:title></cc:Work></rdf:RDF></metadata><defs
     id="defs6"><clipPath
       id="clipPath16"><path
         d="m -306,791.9399 1224,0 0,-791.8794 -1224,0 0,791.8794 z"
         id="path18" /></clipPath><clipPath
       id="clipPath28"><path
         d="m -306,791.9399 1224,0 0,-791.8794 -1224,0 0,791.8794 z"
         id="path30" /></clipPath><clipPath
       id="clipPath40"><path
         d="m -306,791.9399 1224,0 0,-791.8794 -1224,0 0,791.8794 z"
         id="path42" /></clipPath><clipPath
       id="clipPath52"><path
         d="m -306,791.9399 1224,0 0,-791.8794 -1224,0 0,791.8794 z"
         id="path54" /></clipPath></defs><g
     transform="matrix(1.25,0,0,-1.25,227,760.23125)"
     id="g10"><g
       id="g12"><g
         clip-path="url(#clipPath16)"
         id="g14"><path
           d="m -177.3462,340.4902 35.8623,0 c 26.961,0 49.4068,21.2852 49.4068,48.6328 0,27.3492 -22.3169,48.6338 -49.4068,48.6338 l -35.8623,0 0,-97.2666 0,0 m 25.2842,75.8526 5.9341,0 c 16.2539,0 27.7348,-9.8037 27.7348,-27.2198 0,-18.9628 -12.8999,-27.2187 -27.9931,-27.2187 l -5.6758,0 0,54.4385 0,0 m 146.1567,-58.9522 6.3213,-16.9004 26.961,0 -36.6358,97.2666 -27.6064,0 -37.4097,-97.2666 26.832,0 6.708,16.9004 34.8296,0 0,0 m -6.8369,19.3496 -21.0268,0 10.4492,30.9595 0.2578,0 10.3198,-30.9595 0,0 m 97.0303,39.6026 20.8979,0 0,21.414 -67.08,0 0,-21.414 20.8979,0 0,-75.8526 25.2842,0 0,75.8526 0,0 m 99.998,-58.9522 6.3208,-16.9004 26.961,0 -36.6358,97.2666 -27.6059,0 -37.4102,-97.2666 26.832,0 6.7081,16.9004 34.83,0 0,0 m -6.8369,19.3496 -21.0273,0 10.4492,30.9595 0.2578,0 10.3203,-30.9595 0,0 z"
           id="path20"
           style="fill:#00adef;fill-opacity:1;fill-rule:nonzero;stroke:none" /></g></g><path
       d="m 728.5898,340.0273 c 27.3799,0 49.5704,22.1954 49.5704,49.5762 0,27.3784 -22.1905,49.5733 -49.5704,49.5733 -27.3798,0 -49.5781,-22.1949 -49.5781,-49.5733 0,-27.3808 22.1983,-49.5762 49.5781,-49.5762 l 0,0 z"
       id="path22"
       style="fill:#33bdf2;fill-opacity:1;fill-rule:nonzero;stroke:none" /><g
       id="g24"><g
         clip-path="url(#clipPath28)"
         id="g26"><path
           d="m 586.2891,338.7949 c 27.3789,0 49.5742,22.1953 49.5742,49.5742 0,27.3799 -22.1953,49.5757 -49.5742,49.5757 -27.3799,0 -49.5752,-22.1958 -49.5752,-49.5757 0,-27.3789 22.1953,-49.5742 49.5752,-49.5742 l 0,0 z"
           id="path32"
           style="fill:#66cef5;fill-opacity:1;fill-rule:nonzero;stroke:none" /></g></g><path
       d="m 444.6465,338.7949 c 27.3799,0 49.5742,22.1953 49.5742,49.5742 0,27.3799 -22.1943,49.5757 -49.5742,49.5757 -27.3799,0 -49.5742,-22.1958 -49.5742,-49.5757 0,-27.3789 22.1943,-49.5742 49.5742,-49.5742 l 0,0 z"
       id="path34"
       style="fill:#99def9;fill-opacity:1;fill-rule:nonzero;stroke:none" /><g
       id="g36"><g
         clip-path="url(#clipPath40)"
         id="g38"><path
           d="m 304.1851,338.7949 c 27.3803,0 49.5747,22.1953 49.5747,49.5742 0,27.3799 -22.1944,49.5757 -49.5747,49.5757 -27.3789,0 -49.5743,-22.1958 -49.5743,-49.5757 0,-27.3789 22.1954,-49.5742 49.5743,-49.5742 l 0,0 z"
           id="path44"
           style="fill:#cceffc;fill-opacity:1;fill-rule:nonzero;stroke:none" /></g></g><path
       d="m -113.9258,270.1523 c -6.373,3.9122 -13.8633,5.7012 -21.2422,5.7012 -24.8203,0 -44.832,-19.4531 -44.832,-44.3847 0,-24.3731 19.8999,-43.4903 43.937,-43.4903 7.3789,0 15.6519,2.125 22.1372,5.9258 l 0,12.4102 c -6.2612,-5.5899 -14.1992,-8.7207 -22.4721,-8.7207 -18.7823,0 -33.0933,15.7636 -33.0933,34.2109 0,18.6699 14.4224,34.4336 33.3174,34.4336 7.937,0 16.2109,-2.9063 22.248,-8.2735 l 0,12.1875 0,0 m 59.6997,5.7012 c -24.1479,0 -44.1611,-19.789 -44.1611,-43.9375 0,-25.043 19.7891,-43.9375 44.1611,-43.9375 24.3731,0 44.1612,18.8945 44.1612,43.9375 0,24.1485 -20.0122,43.9375 -44.1612,43.9375 l 0,0 m 0,-78.0371 c -18.2231,0 -33.6509,14.8691 -33.6509,34.0996 0,18.5586 13.8628,34.0996 33.6509,34.0996 19.7891,0 33.6519,-15.541 33.6519,-34.0996 0,-19.2305 -15.4278,-34.0996 -33.6519,-34.0996 l 0,0 m 77.1411,76.2481 -10.5092,0 0,-84.2969 36.1113,0 0,9.6152 -25.6021,0 0,74.6817 0,0 m 56.458,0 -10.5087,0 0,-84.2969 36.1118,0 0,9.6152 -25.6031,0 0,74.6817 0,0 m 97.7129,-63.1661 9.6153,-21.1308 11.291,0 -40.2471,87.875 -40.249,-87.875 11.292,0 9.6147,21.1308 38.6831,0 0,0 m -4.3598,9.6133 -29.9634,0 14.9824,34.0996 14.981,-34.0996 0,0 m 54.2212,44.1621 2.9067,0 c 9.8389,0 17.8882,-2.0136 17.8882,-13.8633 0,-12.0742 -8.1611,-14.0878 -18.1123,-14.0878 l -2.6826,0 0,27.9511 0,0 m 0,-36.3359 6.4848,0 c 9.3911,0 21.4649,-2.459 21.4649,-14.3106 0,-11.9628 -10.1729,-14.8691 -19.8999,-14.8691 l -8.0498,0 0,29.1797 0,0 m -10.5093,-38.5703 19.6767,0 c 14.8692,0 29.2911,6.707 29.2911,23.5898 0,9.8379 -6.9307,19.5645 -16.8809,21.3535 l 0,0.2246 c 5.7022,2.6817 9.0562,9.8379 9.0562,15.9864 0,19.0058 -14.982,23.1426 -30.857,23.1426 l -10.2861,0 0,-84.2969 0,0 m 107.8862,86.0859 c -24.1494,0 -44.1611,-19.789 -44.1611,-43.9375 0,-25.043 19.7881,-43.9375 44.1611,-43.9375 24.3721,0 44.1612,18.8945 44.1612,43.9375 0,24.1485 -20.0127,43.9375 -44.1612,43.9375 l 0,0 m 0,-78.0371 c -18.2241,0 -33.6523,14.8691 -33.6523,34.0996 0,18.5586 13.8633,34.0996 33.6523,34.0996 19.7881,0 33.6514,-15.541 33.6514,-34.0996 0,-19.2305 -15.4287,-34.0996 -33.6514,-34.0996 l 0,0 m 89.1026,28.6211 c 12.1865,1.4531 20.2363,11.5156 20.2363,23.5898 0,8.0489 -4.0254,15.9883 -11.0693,20.125 -6.7071,3.8008 -14.7569,3.9122 -22.2481,3.9122 l -12.7451,0 0,-84.2969 10.5098,0 0,35.664 4.3603,0 24.8193,-35.664 12.7452,0 -26.6084,36.6699 0,0 m -15.3164,38.2363 2.7949,0 c 10.3974,0 22.9189,-1.9004 22.9189,-15.0937 0,-13.416 -11.6269,-15.4278 -22.3603,-15.4278 l -3.3535,0 0,30.5215 0,0 m 114.2597,-53.7754 9.6153,-21.1308 11.291,0 -40.2481,87.875 -40.248,-87.875 11.292,0 9.6152,21.1308 38.6826,0 0,0 m -4.3603,9.6133 -29.9629,0 14.9814,34.0996 14.9815,-34.0996 0,0 m 59.4941,43.9375 20.0117,0 0,9.6153 -50.5322,0 0,-9.6153 20.0117,0 0,-74.6816 10.5088,0 0,74.6816 0,0 m 51.875,9.6153 -10.5088,0 0,-84.2969 10.5088,0 0,84.2969 0,0 m 31.8623,0 -11.5156,0 36.6709,-88.7696 36.5537,88.7696 -11.5107,0 -25.043,-62.3848 -25.1553,62.3848 0,0 m 82.2891,-84.2969 45.2695,0 0,9.6152 -34.7695,0 0,31.8613 33.7695,0 0,9.6153 -33.7695,0 0,23.5898 34.7695,0 0,9.6153 -45.2695,0 0,-84.2969 0,0 z"
       id="path46"
       style="fill:#1d5cb0;fill-opacity:1;fill-rule:nonzero;stroke:none" /><g
       id="g48"><g
         clip-path="url(#clipPath52)"
         id="g50"><path
           d="m -105.9248,597.731 c -7.1084,4.3637 -15.4634,6.3598 -23.6934,6.3598 -27.684,0 -50.0048,-21.6977 -50.0048,-49.5058 0,-27.1851 22.1972,-48.5093 49.0068,-48.5093 8.23,0 17.458,2.3701 24.6914,6.6103 l 0,13.8409 c -6.9834,-6.2349 -15.8374,-9.7261 -25.0654,-9.7261 -20.9488,0 -36.9107,17.582 -36.9107,38.1582 0,20.8247 16.086,38.4067 37.1607,38.4067 8.853,0 18.081,-3.2417 24.8154,-9.2265 l 0,13.5918 0,0 m 69.083,6.3598 c -26.9351,0 -49.2563,-22.0718 -49.2563,-49.0068 0,-27.9331 22.0712,-49.0083 49.2563,-49.0083 27.1846,0 49.2568,21.0752 49.2568,49.0083 0,26.935 -22.3222,49.0068 -49.2568,49.0068 l 0,0 m 0,-87.041 c -20.3262,0 -37.5352,16.585 -37.5352,38.0342 0,20.6997 15.4629,38.0327 37.5352,38.0327 22.0718,0 37.5347,-17.333 37.5347,-38.0327 0,-21.4492 -17.209,-38.0342 -37.5347,-38.0342 l 0,0 m 71.9497,-8.978 11.7222,0 0,70.081 70.5801,-73.9467 0,97.8886 -11.7212,0 0,-69.4565 -70.5811,73.9468 0,-98.5132 0,0 m 110.3579,0 11.7222,0 0,70.081 70.5801,-73.9467 0,97.8886 -11.7212,0 0,-69.4565 -70.5811,73.9468 0,-98.5132 0,0 m 111.4815,0 50.5029,0 0,10.7241 -38.7813,0 0,35.5391 37.6592,0 0,10.7251 -37.6592,0 0,26.311 38.7813,0 0,10.7236 -50.5029,0 0,-94.0229 0,0 m 145.8974,89.6592 c -7.1074,4.3637 -15.4619,6.3598 -23.6924,6.3598 -27.6835,0 -50.0039,-21.6977 -50.0039,-49.5058 0,-27.1851 22.1954,-48.5093 49.0069,-48.5093 8.2295,0 17.458,2.3701 24.6894,6.6103 l 0,13.8409 c -6.9824,-6.2349 -15.8369,-9.7261 -25.0634,-9.7261 -20.9502,0 -36.9122,17.582 -36.9122,38.1582 0,20.8247 16.087,38.4067 37.1612,38.4067 8.8535,0 18.081,-3.2417 24.8144,-9.2265 l 0,13.5918 0,0 m 51.75,-6.3599 22.3213,0 0,10.7236 -56.3642,0 0,-10.7236 22.3212,0 0,-83.2993 11.7217,0 0,83.2993 0,0 m 55.3662,10.7236 -11.7216,0 0,-94.0229 11.7216,0 0,94.0229 0,0 m 98.5118,-4.3637 c -7.1065,4.3637 -15.462,6.3598 -23.6924,6.3598 -27.6836,0 -50.0039,-21.6977 -50.0039,-49.5058 0,-27.1851 22.1953,-48.5093 49.0068,-48.5093 8.2295,0 17.458,2.3701 24.6895,6.6103 l 0,13.8409 c -6.9825,-6.2349 -15.836,-9.7261 -25.0635,-9.7261 -20.9502,0 -36.9112,17.582 -36.9112,38.1582 0,20.8247 16.086,38.4067 37.1602,38.4067 8.8535,0 18.082,-3.2417 24.8145,-9.2265 l 0,13.5918 0,0 m 24.8154,4.3637 0,-59.4809 c 0,-20.7007 12.8437,-36.5381 34.417,-36.5381 21.5732,0 34.415,15.8374 34.415,36.5381 l 0,59.4809 -11.7187,0 0,-55.4907 c 0,-15.3379 -4.6143,-29.5542 -22.6963,-29.5542 -18.0811,0 -22.6953,14.2163 -22.6953,29.5542 l 0,55.4907 -11.7217,0 0,0 m 122.832,-10.7236 22.3194,0 0,10.7236 -56.3692,0 0,-10.7236 22.3193,0 0,-83.2993 11.7305,0 0,83.2993 0,0 z"
           id="path56"
           style="fill:#1d5cb0;fill-opacity:1;fill-rule:nonzero;stroke:none" /></g></g></g></svg>