<?xml version="1.0" encoding="UTF-8" standalone="no"?>
<!-- Created with Inkscape (http://www.inkscape.org/) -->

<svg
   xmlns:dc="http://purl.org/dc/elements/1.1/"
   xmlns:cc="http://creativecommons.org/ns#"
   xmlns:rdf="http://www.w3.org/1999/02/22-rdf-syntax-ns#"
   xmlns:svg="http://www.w3.org/2000/svg"
   xmlns="http://www.w3.org/2000/svg"
   version="1.1"
   width="120.64998"
   height="52.661213"
   id="svg2"
   xml:space="preserve"><metadata
     id="metadata8"><rdf:RDF><cc:Work
         rdf:about=""><dc:format>image/svg+xml</dc:format><dc:type
           rdf:resource="http://purl.org/dc/dcmitype/StillImage" /><dc:title></dc:title></cc:Work></rdf:RDF></metadata><defs
     id="defs6"><clipPath
       id="clipPath16"><path
         d="m -306,791.9399 1224,0 0,-791.8794 -1224,0 0,791.8794 z"
         id="path18" /></clipPath><clipPath
       id="clipPath28"><path
         d="m -306,791.9399 1224,0 0,-791.8794 -1224,0 0,791.8794 z"
         id="path30" /></clipPath><clipPath
       id="clipPath40"><path
         d="m -306,791.9399 1224,0 0,-791.8794 -1224,0 0,791.8794 z"
         id="path42" /></clipPath><clipPath
       id="clipPath52"><path
         d="m -306,791.9399 1224,0 0,-791.8794 -1224,0 0,791.8794 z"
         id="path54" /></clipPath></defs><g
     transform="matrix(1.25,0,0,-1.25,-314.32489,521.25556)"
     id="g10"><g
       transform="matrix(0.1,0,0,0.1,269.45991,356.34595)"
       id="g12"><g
         clip-path="url(#clipPath16)"
         id="g14"><path
           d="m -177.3462,340.4902 35.8623,0 c 26.961,0 49.4068,21.2852 49.4068,48.6328 0,27.3492 -22.3169,48.6338 -49.4068,48.6338 l -35.8623,0 0,-97.2666 0,0 m 25.2842,75.8526 5.9341,0 c 16.2539,0 27.7348,-9.8037 27.7348,-27.2198 0,-18.9628 -12.8999,-27.2187 -27.9931,-27.2187 l -5.6758,0 0,54.4385 0,0 m 146.1567,-58.9522 6.3213,-16.9004 26.961,0 -36.6358,97.2666 -27.6064,0 -37.4097,-97.2666 26.832,0 6.708,16.9004 34.8296,0 0,0 m -6.8369,19.3496 -21.0268,0 10.4492,30.9595 0.2578,0 10.3198,-30.9595 0,0 m 97.0303,39.6026 20.8979,0 0,21.414 -67.08,0 0,-21.414 20.8979,0 0,-75.8526 25.2842,0 0,75.8526 0,0 m 99.998,-58.9522 6.3208,-16.9004 26.961,0 -36.6358,97.2666 -27.6059,0 -37.4102,-97.2666 26.832,0 6.7081,16.9004 34.83,0 0,0 m -6.8369,19.3496 -21.0273,0 10.4492,30.9595 0.2578,0 10.3203,-30.9595 0,0 z"
           id="path20"
           style="fill:#00adef;fill-opacity:1;fill-rule:nonzero;stroke:none" /></g></g><path
       d="m 342.31889,390.34868 c 2.73799,0 4.95704,2.21954 4.95704,4.95762 0,2.73785 -2.21905,4.95734 -4.95704,4.95734 -2.73798,0 -4.95781,-2.21949 -4.95781,-4.95734 0,-2.73808 2.21983,-4.95762 4.95781,-4.95762 l 0,0 z"
       id="path22"
       style="fill:#33bdf2;fill-opacity:1;fill-rule:nonzero;stroke:none" /><g
       transform="matrix(0.1,0,0,0.1,269.45991,356.34595)"
       id="g24"><g
         clip-path="url(#clipPath28)"
         id="g26"><path
           d="m 586.2891,338.7949 c 27.3789,0 49.5742,22.1953 49.5742,49.5742 0,27.3799 -22.1953,49.5757 -49.5742,49.5757 -27.3799,0 -49.5752,-22.1958 -49.5752,-49.5757 0,-27.3789 22.1953,-49.5742 49.5752,-49.5742 l 0,0 z"
           id="path32"
           style="fill:#66cef5;fill-opacity:1;fill-rule:nonzero;stroke:none" /></g></g><path
       d="m 313.92456,390.22544 c 2.73799,0 4.95742,2.21953 4.95742,4.95742 0,2.738 -2.21943,4.95758 -4.95742,4.95758 -2.73799,0 -4.95742,-2.21958 -4.95742,-4.95758 0,-2.73789 2.21943,-4.95742 4.95742,-4.95742 l 0,0 z"
       id="path34"
       style="fill:#99def9;fill-opacity:1;fill-rule:nonzero;stroke:none" /><g
       transform="matrix(0.1,0,0,0.1,269.45991,356.34595)"
       id="g36"><g
         clip-path="url(#clipPath40)"
         id="g38"><path
           d="m 304.1851,338.7949 c 27.3803,0 49.5747,22.1953 49.5747,49.5742 0,27.3799 -22.1944,49.5757 -49.5747,49.5757 -27.3789,0 -49.5743,-22.1958 -49.5743,-49.5757 0,-27.3789 22.1954,-49.5742 49.5743,-49.5742 l 0,0 z"
           id="path44"
           style="fill:#cceffc;fill-opacity:1;fill-rule:nonzero;stroke:none" /></g></g><path
       d="m 258.06733,383.36118 c -0.6373,0.39122 -1.38633,0.57012 -2.12422,0.57012 -2.48203,0 -4.4832,-1.94531 -4.4832,-4.43846 0,-2.43732 1.98999,-4.34904 4.3937,-4.34904 0.73789,0 1.56519,0.21251 2.21372,0.59259 l 0,1.24102 c -0.62612,-0.559 -1.41992,-0.87207 -2.24721,-0.87207 -1.87823,0 -3.30933,1.57635 -3.30933,3.42109 0,1.86698 1.44224,3.44335 3.33174,3.44335 0.7937,0 1.62109,-0.29062 2.2248,-0.82734 l 0,1.21875 0,0 m 5.96997,0.57011 c -2.41479,0 -4.41611,-1.9789 -4.41611,-4.39375 0,-2.5043 1.97891,-4.39375 4.41611,-4.39375 2.43731,0 4.41612,1.88945 4.41612,4.39375 0,2.41485 -2.00122,4.39375 -4.41612,4.39375 l 0,0 m 0,-7.80371 c -1.82231,0 -3.36509,1.48691 -3.36509,3.40996 0,1.85586 1.38628,3.40996 3.36509,3.40996 1.97891,0 3.36519,-1.5541 3.36519,-3.40996 0,-1.92305 -1.54278,-3.40996 -3.36519,-3.40996 l 0,0 m 7.71411,7.62481 -1.05092,0 0,-8.42968 3.61113,0 0,0.96152 -2.56021,0 0,7.46816 0,0 m 5.6458,0 -1.05087,0 0,-8.42968 3.61118,0 0,0.96152 -2.56031,0 0,7.46816 0,0 m 9.77129,-6.31661 0.96153,-2.11307 1.1291,0 -4.02471,8.7875 -4.0249,-8.7875 1.1292,0 0.96147,2.11307 3.86831,0 0,0 m -0.43598,0.96134 -2.99634,0 1.49824,3.40996 1.4981,-3.40996 0,0 m 5.42212,4.4162 0.29067,0 c 0.98389,0 1.78882,-0.20135 1.78882,-1.38633 0,-1.20742 -0.81611,-1.40877 -1.81123,-1.40877 l -0.26826,0 0,2.7951 0,0 m 0,-3.63358 0.64848,0 c 0.93911,0 2.14649,-0.2459 2.14649,-1.43106 0,-1.19628 -1.01729,-1.48692 -1.98999,-1.48692 l -0.80498,0 0,2.91798 0,0 m -1.05093,-3.85703 1.96767,0 c 1.48692,0 2.92911,0.6707 2.92911,2.35897 0,0.98379 -0.69307,1.95645 -1.68809,2.13535 l 0,0.0225 c 0.57022,0.26817 0.90562,0.98379 0.90562,1.59864 0,1.90057 -1.4982,2.31425 -3.0857,2.31425 l -1.02861,0 0,-8.42968 0,0 m 10.78862,8.60858 c -2.41494,0 -4.41611,-1.9789 -4.41611,-4.39375 0,-2.5043 1.97881,-4.39375 4.41611,-4.39375 2.43721,0 4.41612,1.88945 4.41612,4.39375 0,2.41485 -2.00127,4.39375 -4.41612,4.39375 l 0,0 m 0,-7.80371 c -1.82241,0 -3.36523,1.48691 -3.36523,3.40996 0,1.85586 1.38633,3.40996 3.36523,3.40996 1.97881,0 3.36514,-1.5541 3.36514,-3.40996 0,-1.92305 -1.54287,-3.40996 -3.36514,-3.40996 l 0,0 m 8.91026,2.86212 c 1.21865,0.1453 2.02363,1.15156 2.02363,2.35897 0,0.80489 -0.40254,1.59883 -1.10693,2.01251 -0.67071,0.38007 -1.47569,0.39121 -2.22481,0.39121 l -1.27451,0 0,-8.42968 1.05098,0 0,3.56639 0.43603,0 2.48193,-3.56639 1.27452,0 -2.66084,3.66699 0,0 m -1.53164,3.82362 0.27949,0 c 1.03974,0 2.29189,-0.19004 2.29189,-1.50937 0,-1.3416 -1.16269,-1.54278 -2.23603,-1.54278 l -0.33535,0 0,3.05215 0,0 m 11.42597,-5.37754 0.96153,-2.11307 1.1291,0 -4.02481,8.78749 -4.0248,-8.78749 1.1292,0 0.96152,2.11307 3.86826,0 0,0 m -0.43603,0.96134 -2.99629,0 1.49814,3.40996 1.49815,-3.40996 0,0 m 5.94941,4.39375 2.00117,0 0,0.96152 -5.05322,0 0,-0.96152 2.00117,0 0,-7.46816 1.05088,0 0,7.46816 0,0 m 5.1875,0.96152 -1.05088,0 0,-8.42968 1.05088,0 0,8.42968 0,0 m 3.18623,0 -1.15156,0 3.66709,-8.87695 3.65537,8.87695 -1.15107,0 -2.5043,-6.23847 -2.51553,6.23847 0,0 m 8.22891,-8.42968 4.52695,0 0,0.96152 -3.47695,0 0,3.18613 3.37695,0 0,0.96152 -3.37695,0 0,2.35899 3.47695,0 0,0.96152 -4.52695,0 0,-8.42968 0,0 z"
       id="path46"
       style="fill:#1d5cb0;fill-opacity:1;fill-rule:nonzero;stroke:none" /><g
       id="g48"><g
         clip-path="url(#clipPath52)"
         id="g50"><path
           d="m 258.86743,416.11905 c -0.71084,0.43638 -1.54634,0.63599 -2.36934,0.63599 -2.7684,0 -5.00048,-2.16978 -5.00048,-4.95058 0,-2.71852 2.21972,-4.85093 4.90068,-4.85093 0.823,0 1.7458,0.237 2.46914,0.66102 l 0,1.38409 c -0.69834,-0.62349 -1.58374,-0.97261 -2.50654,-0.97261 -2.09488,0 -3.69107,1.75821 -3.69107,3.81582 0,2.08247 1.6086,3.84067 3.71607,3.84067 0.8853,0 1.8081,-0.32416 2.48154,-0.92264 l 0,1.35917 0,0 m 6.9083,0.63599 c -2.69351,0 -4.92563,-2.20718 -4.92563,-4.90069 0,-2.7933 2.20712,-4.90082 4.92563,-4.90082 2.71846,0 4.92568,2.10752 4.92568,4.90082 0,2.69351 -2.23222,4.90069 -4.92568,4.90069 l 0,0 m 0,-8.70411 c -2.03262,0 -3.75352,1.6585 -3.75352,3.80342 0,2.06997 1.54629,3.80327 3.75352,3.80327 2.20718,0 3.75347,-1.7333 3.75347,-3.80327 0,-2.14492 -1.7209,-3.80342 -3.75347,-3.80342 l 0,0 m 7.19497,-0.89779 1.17222,0 0,7.0081 7.05801,-7.39467 0,9.78886 -1.17212,0 0,-6.94565 -7.05811,7.39467 0,-9.85131 0,0 m 11.03579,0 1.17222,0 0,7.00809 7.05801,-7.39466 0,9.78886 -1.17212,0 0,-6.94565 -7.05811,7.39467 0,-9.85131 0,0 m 11.14815,0 5.05029,0 0,1.0724 -3.87813,0 0,3.55391 3.76592,0 0,1.07251 -3.76592,0 0,2.6311 3.87813,0 0,1.07237 -5.05029,0 0,-9.40229 0,0 m 14.58974,8.96591 c -0.71074,0.43638 -1.54619,0.63599 -2.36924,0.63599 -2.76835,0 -5.00039,-2.16978 -5.00039,-4.95059 0,-2.71851 2.21954,-4.85092 4.90069,-4.85092 0.82295,0 1.7458,0.237 2.46894,0.66102 l 0,1.38409 c -0.69824,-0.62349 -1.58369,-0.97261 -2.50634,-0.97261 -2.09502,0 -3.69122,1.7582 -3.69122,3.81582 0,2.08247 1.6087,3.84067 3.71612,3.84067 0.88535,0 1.8081,-0.32417 2.48144,-0.92265 l 0,1.35918 0,0 m 5.175,-0.63599 2.23213,0 0,1.07237 -5.63642,0 0,-1.07237 2.23212,0 0,-8.32992 1.17217,0 0,8.32992 0,0 m 5.53662,1.07237 -1.17216,0 0,-9.40229 1.17216,0 0,9.40229 0,0 m 9.85118,-0.43638 c -0.71065,0.43638 -1.5462,0.63599 -2.36924,0.63599 -2.76836,0 -5.00039,-2.16978 -5.00039,-4.95059 0,-2.71851 2.21953,-4.85092 4.90068,-4.85092 0.82295,0 1.7458,0.237 2.46895,0.66102 l 0,1.38409 c -0.69825,-0.62349 -1.5836,-0.97261 -2.50635,-0.97261 -2.09502,0 -3.69112,1.7582 -3.69112,3.81582 0,2.08247 1.6086,3.84067 3.71602,3.84067 0.88535,0 1.8082,-0.32417 2.48145,-0.92265 l 0,1.35918 0,0 m 2.48154,0.43638 0,-5.9481 c 0,-2.07007 1.28437,-3.6538 3.4417,-3.6538 2.15732,0 3.4415,1.58373 3.4415,3.6538 l 0,5.9481 -1.17187,0 0,-5.54908 c 0,-1.53378 -0.46143,-2.95542 -2.26963,-2.95542 -1.80811,0 -2.26953,1.42164 -2.26953,2.95542 l 0,5.54908 -1.17217,0 0,0 m 12.2832,-1.07237 2.23194,0 0,1.07237 -5.63692,0 0,-1.07237 2.23193,0 0,-8.32992 1.17305,0 0,8.32992 0,0 z"
           id="path56"
           style="fill:#1d5cb0;fill-opacity:1;fill-rule:nonzero;stroke:none" /></g></g></g></svg>